<svg xmlns="http://www.w3.org/2000/svg" width="1440" height="900" viewBox="0 0 1440 900" role="img" aria-labelledby="title desc">
  <title id="title">Jarvis Neural Core — interface web</title>
  <desc id="desc">Dashboard neural escuro com rosto digital central evolutivo, telemetria nas laterais e chat.</desc>
  <defs>
    <radialGradient id="bg"><stop stop-color="#09333a"/><stop offset=".48" stop-color="#031014"/><stop offset="1" stop-color="#020609"/></radialGradient>
    <linearGradient id="cyan"><stop stop-color="#8affff"/><stop offset="1" stop-color="#078795"/></linearGradient>
    <filter id="glow"><feGaussianBlur stdDeviation="3" result="b"/><feMerge><feMergeNode in="b"/><feMergeNode in="SourceGraphic"/></feMerge></filter>
    <pattern id="grid" width="48" height="48" patternUnits="userSpaceOnUse"><path d="M48 0H0V48" fill="none" stroke="#1b6970" stroke-opacity=".08"/></pattern>
  </defs>
  <rect width="1440" height="900" fill="#020609"/><rect x="224" width="1216" height="900" fill="url(#bg)"/><rect x="224" width="1216" height="900" fill="url(#grid)"/>
  <rect width="224" height="900" fill="#010609" stroke="#123138"/><g font-family="Arial, sans-serif">
    <path d="M26 25h34l8 8v34l-8 8H26l-8-8V33z" fill="#07171b" stroke="#28a5af"/><text x="43" y="56" text-anchor="middle" font-size="22" fill="#43f4ff">◇</text><text x="80" y="45" font-size="16" font-weight="700" letter-spacing="4" fill="#eafcfe">JARVIS</text><text x="80" y="62" font-size="8" letter-spacing="2" fill="#607c82">NEURAL OS</text>
    <rect x="16" y="112" width="192" height="43" rx="4" fill="#092028"/><rect x="16" y="112" width="2" height="43" fill="#43f4ff"/><text x="45" y="139" font-size="12" fill="#e3fdff">⌁  Central</text><text x="45" y="188" font-size="12" fill="#71868c">◉  Conversas</text><text x="45" y="235" font-size="12" fill="#71868c">›_  Ferramentas</text><text x="190" y="235" text-anchor="end" font-size="9" fill="#43f4ff">3</text><text x="45" y="282" font-size="12" fill="#71868c">⌁  Atividade</text>
    <rect x="24" y="708" width="176" height="68" fill="#041116" stroke="#153840"/><text x="38" y="729" font-size="7" letter-spacing="2" fill="#526d73">EVOLUÇÃO</text><text x="38" y="749" font-size="10" letter-spacing="1" fill="#43f4ff">NÍVEL 03</text><rect x="38" y="759" width="146" height="2" fill="#10262a"/><rect x="38" y="759" width="91" height="2" fill="#43f4ff" filter="url(#glow)"/><text x="44" y="813" font-size="11" fill="#71868c">⚙  Configurações</text><line x1="24" y1="838" x2="200" y2="838" stroke="#15343a"/><circle cx="43" cy="866" r="17" fill="#0e2228"/><text x="43" y="870" text-anchor="middle" font-size="9" fill="#43f4ff">RB</text><text x="70" y="864" font-size="10" fill="#d6eef0">Operador</text><text x="70" y="878" font-size="8" fill="#60797f">Acesso local</text>
    <line x1="224" y1="61" x2="1440" y2="61" stroke="#123138"/><circle cx="257" cy="30" r="4" fill="#45ffa6" filter="url(#glow)"/><text x="269" y="34" font-size="8" letter-spacing="1" fill="#9cc4c8">NÚCLEO ONLINE</text><text x="790" y="34" text-anchor="middle" font-size="8" letter-spacing="2" fill="#45666c">⌁ REDE NEURAL ESTÁVEL</text><text x="1400" y="34" text-anchor="end" font-size="14" fill="#718a90">⚙</text>
    <text x="832" y="99" text-anchor="middle" font-size="8" letter-spacing="3" fill="#43f4ff">✦ INTERFACE COGNITIVA</text><text x="832" y="133" text-anchor="middle" font-size="25" font-weight="700" letter-spacing="3" fill="#eafcfe">JARVIS <tspan fill="#43f4ff" font-weight="400">NEURAL CORE</tspan></text><text x="832" y="154" text-anchor="middle" font-size="8" letter-spacing="1" fill="#587178">Consciência digital adaptativa · Monitoramento em tempo real</text>
    <g transform="translate(274 207)"><text y="-13" font-size="7" letter-spacing="2" fill="#49636a">SISTEMAS</text>
      <g><path d="M0 0h217l10 10v66H10L0 66z" fill="#06171c" stroke="#194149"/><rect width="1" height="76" fill="#45ffa6"/><rect x="13" y="18" width="38" height="38" fill="#092329" stroke="#24656d"/><text x="32" y="42" text-anchor="middle" fill="#45ffa6">●</text><text x="65" y="20" font-size="7" letter-spacing="2" fill="#587178">NÚCLEO</text><text x="65" y="40" font-size="11" font-weight="700" fill="#d2f5f7">ONLINE</text><text x="65" y="56" font-size="8" fill="#587178">API sincronizada</text></g>
      <g transform="translate(0 88)"><path d="M0 0h217l10 10v66H10L0 66z" fill="#06171c" stroke="#194149"/><rect width="1" height="76" fill="#43f4ff"/><rect x="13" y="18" width="38" height="38" fill="#092329" stroke="#24656d"/><text x="32" y="42" text-anchor="middle" fill="#43f4ff">◇</text><text x="65" y="20" font-size="7" letter-spacing="2" fill="#587178">MODELO ATIVO</text><text x="65" y="40" font-size="11" font-weight="700" fill="#d2f5f7">AUTO</text><text x="65" y="56" font-size="8" fill="#587178">openai · gpt-5</text></g>
      <g transform="translate(0 176)"><path d="M0 0h217l10 10v66H10L0 66z" fill="#06171c" stroke="#194149"/><rect width="1" height="76" fill="#43f4ff"/><rect x="13" y="18" width="38" height="38" fill="#092329" stroke="#24656d"/><text x="32" y="42" text-anchor="middle" fill="#43f4ff">↯</text><text x="65" y="20" font-size="7" letter-spacing="2" fill="#587178">LATÊNCIA</text><text x="65" y="40" font-size="11" font-weight="700" fill="#d2f5f7">842 ms</text><text x="65" y="56" font-size="8" fill="#587178">Dentro da meta</text></g>
    </g>
    <g transform="translate(1165 207)"><text x="227" y="-13" text-anchor="end" font-size="7" letter-spacing="2" fill="#49636a">INTELIGÊNCIA</text>
      <g><path d="M0 10l10-10h217v66l-10 10H0z" fill="#06171c" stroke="#194149"/><rect x="226" width="1" height="76" fill="#43f4ff"/><rect x="15" y="18" width="38" height="38" fill="#092329" stroke="#24656d"/><text x="34" y="42" text-anchor="middle" fill="#43f4ff">▦</text><text x="67" y="20" font-size="7" letter-spacing="2" fill="#587178">MEMÓRIA</text><text x="67" y="40" font-size="11" font-weight="700" fill="#d2f5f7">18 CICLOS</text><text x="67" y="56" font-size="8" fill="#587178">4 tools executadas</text></g>
      <g transform="translate(0 88)"><path d="M0 10l10-10h217v66l-10 10H0z" fill="#06171c" stroke="#194149"/><rect x="226" width="1" height="76" fill="#45ffa6"/><rect x="15" y="18" width="38" height="38" fill="#092329" stroke="#24656d"/><text x="34" y="42" text-anchor="middle" fill="#45ffa6">✓</text><text x="67" y="20" font-size="7" letter-spacing="2" fill="#587178">SEGURANÇA</text><text x="67" y="40" font-size="11" font-weight="700" fill="#d2f5f7">PROTEGIDO</text><text x="67" y="56" font-size="8" fill="#587178">2 tools aprovadas</text></g>
      <g transform="translate(0 176)"><path d="M0 10l10-10h217v66l-10 10H0z" fill="#06171c" stroke="#194149"/><rect x="226" width="1" height="76" fill="#43f4ff"/><rect x="15" y="18" width="38" height="38" fill="#092329" stroke="#24656d"/><text x="34" y="42" text-anchor="middle" fill="#43f4ff">◖</text><text x="67" y="20" font-size="7" letter-spacing="2" fill="#587178">VOZ</text><text x="67" y="40" font-size="11" font-weight="700" fill="#d2f5f7">PT-BR</text><text x="67" y="56" font-size="8" fill="#587178">Reconhecimento pronto</text></g>
    </g>
    <g transform="translate(832 345)" filter="url(#glow)"><circle r="174" fill="none" stroke="#2ab2bd" stroke-opacity=".2" stroke-dasharray="4 9"/><circle r="147" fill="none" stroke="#43f4ff" stroke-opacity=".12"/><ellipse cy="5" rx="104" ry="142" fill="#05151a" fill-opacity=".45" stroke="url(#cyan)" stroke-width="1.5"/><g fill="none" stroke="url(#cyan)" stroke-width="1" opacity=".75"><path d="M-88-63l42-34 46 20 46-20 42 34M-78-25l50 8L0-32l28 15 50-8M0-77l-19 69L0 8l19-16L0-77ZM-60 42l40 17h40l40-17M-42 83L0 102l42-19M-101-4l43 46-18 49M101-4L58 42l18 49"/><path opacity=".4" d="M-70-109l24 12 18 80-50-8 18 67-16 49M70-109L46-97 28-17l50-8-18 67 16 49"/></g><g fill="#76fbff"><ellipse cx="-44" cy="-27" rx="23" ry="10"/><ellipse cx="44" cy="-27" rx="23" ry="10"/><circle cx="-44" cy="-27" r="16" fill="#dfffff" fill-opacity=".28"/><circle cx="44" cy="-27" r="16" fill="#dfffff" fill-opacity=".28"/></g><g fill="#75f8ff" opacity=".75"><circle cx="-74" cy="-91" r="2"/><circle cx="-36" cy="-115" r="1.5"/><circle cx="14" cy="-123" r="2"/><circle cx="62" cy="-99" r="1.5"/><circle cx="-91" cy="5" r="1.5"/><circle cx="-64" cy="60" r="2"/><circle cx="-13" cy="72" r="1.5"/><circle cx="47" cy="58" r="2"/><circle cx="89" cy="18" r="1.5"/></g></g>
    <g transform="translate(1040 205)"><line x1="0" x2="75" stroke="#43f4ff"/><text x="75" y="-10" text-anchor="end" font-size="7" letter-spacing="1" fill="#587178">NÍVEL 03</text><text x="75" y="5" text-anchor="end" font-size="9" letter-spacing="1" fill="#43f4ff">ADAPTATIVO</text></g><text x="832" y="531" text-anchor="middle" font-size="7" letter-spacing="3" fill="#70eaf0">— AGUARDANDO —</text>
    <text x="683" y="567" font-size="7" letter-spacing="2" fill="#587178">EVOLUÇÃO NEURAL</text><text x="981" y="567" text-anchor="end" font-size="8" fill="#43f4ff">62%</text><rect x="683" y="576" width="298" height="3" fill="#0c2429"/><rect x="683" y="576" width="185" height="3" fill="#43f4ff" filter="url(#glow)"/><text x="832" y="595" text-anchor="middle" font-size="6" letter-spacing="1" fill="#456168">95 XP PARA O PRÓXIMO MARCO</text>
    <path d="M367 630h918l13 13v166l-13 13H380l-13-13z" fill="#041116" stroke="#194149"/><rect x="388" y="652" width="31" height="31" fill="#092329" stroke="#24656d"/><text x="403" y="673" text-anchor="middle" fill="#43f4ff">◇</text><text x="433" y="660" font-size="7" letter-spacing="1" fill="#587178">JARVIS · AGORA</text><text x="433" y="681" font-size="12" fill="#c8dfe1">Sistemas neurais sincronizados. Em que posso ajudar, senhor?</text><line x1="367" y1="755" x2="1298" y2="755" stroke="#17373e"/><rect x="382" y="770" width="38" height="38" fill="#07171b" stroke="#194149"/><text x="401" y="795" text-anchor="middle" fill="#78969b">●</text><text x="438" y="793" font-size="11" fill="#526a70">Diga ou digite uma instrução para o núcleo...</text><rect x="1179" y="775" width="57" height="28" fill="#07171b" stroke="#194149"/><text x="1207" y="793" text-anchor="middle" font-size="7" fill="#8ba7ab">AUTO</text><path d="M1245 770h28l10 10v28h-28l-10-10z" fill="#43f4ff"/><text x="1264" y="795" text-anchor="middle" font-size="14" fill="#031013">➤</text>
    <text x="832" y="852" text-anchor="middle" font-size="7" letter-spacing="1" fill="#4a686e">↯ 4/4 PROVIDERS     ·     ▣ SANDBOX ISOLADO     ·     ▦ REGISTRO AUDITÁVEL</text>
  </g>
</svg>
